# xmcd CD database file
#
# Track frame offsets:
#	150
#	17419
#	45682
#	75911
#	94133
#	115986
#	130443
#	149554
#	188065
#	207272
#	233593
#
# Disc length: 3429 seconds
#
# Revision: 1
# Processed by: cddbd v1.5.1PL0 Copyright (c) Steve Scherf et al.
# Submitted via: CDex 1.51
#
DISCID=8d0d630b
DTITLE=William Chabbey - Après la nuit
DYEAR=2004
DGENRE=Jazz
TTITLE0=Paris Calvi
TTITLE1=Fast life
TTITLE2=Vignola
TTITLE3=3 et 4
TTITLE4=Manu's blues
TTITLE5=Guitar song
TTITLE6=Swing 21
TTITLE7=Wes groove
TTITLE8=Antoine la comète
TTITLE9=Cécile ma fille
TTITLE10=Après la nuit
EXTD=YEAR: 2004
EXTT0=
EXTT1=
EXTT2=
EXTT3=
EXTT4=
EXTT5=
EXTT6=
EXTT7=
EXTT8=
EXTT9=
EXTT10=
PLAYORDER=
